<?xml version="1.0" encoding="utf-8"?>
<!-- Generator: Adobe Illustrator 23.0.4, SVG Export Plug-In . SVG Version: 6.00 Build 0)  -->
<svg version="1.1" id="Layer_1" xmlns="http://www.w3.org/2000/svg" xmlns:xlink="http://www.w3.org/1999/xlink" x="0px" y="0px"
	 viewBox="0 0 128 128" style="enable-background:new 0 0 128 128;" xml:space="preserve">
<style type="text/css">
	.st0{fill-rule:evenodd;clip-rule:evenodd;fill:#4285F4;}
	.st1{fill-rule:evenodd;clip-rule:evenodd;fill:#34A853;}
	.st2{fill-rule:evenodd;clip-rule:evenodd;fill:#FBBC05;}
	.st3{fill-rule:evenodd;clip-rule:evenodd;fill:#EA4335;}
	.st4{fill:none;}
</style>
<g id="btn_google_light_normal" transform="translate(-1.000000, -1.000000)">
	<g id="logo_googleg_48dp" transform="translate(15.000000, 15.000000)">
		<path id="Shape" class="st0" d="M107.7,52.9c0-4.1-0.4-8.1-1.1-11.9h-55v22.6H83c-1.4,7.3-5.5,13.5-11.7,17.6v14.6h18.9
			C101.3,85.7,107.7,70.7,107.7,52.9L107.7,52.9z"/>
		<path class="st1" d="M51.6,110c15.8,0,29-5.2,38.6-14.1L71.4,81.2c-5.2,3.5-11.9,5.6-19.8,5.6c-15.2,0-28.1-10.3-32.7-24.1H-0.6
			v15.1C9.1,96.9,28.8,110,51.6,110L51.6,110z"/>
		<path class="st2" d="M18.9,62.7c-1.2-3.5-1.8-7.2-1.8-11.1s0.7-7.6,1.8-11.1V25.4H-0.6c-4,7.9-6.2,16.8-6.2,26.2S-4.5,70-0.6,77.8
			L18.9,62.7L18.9,62.7z"/>
		<path class="st3" d="M51.6,16.5c8.6,0,16.3,2.9,22.3,8.7L90.7,8.4C80.6-1,67.4-6.8,51.6-6.8C28.8-6.8,9.1,6.3-0.6,25.4l19.5,15.1
			C23.5,26.7,36.4,16.5,51.6,16.5L51.6,16.5z"/>
		<path class="st4" d="M-6.8-6.8H110V110H-6.8V-6.8z"/>
	</g>
	<g id="handles_square">
	</g>
</g>
</svg>
